<svg xmlns="http://www.w3.org/2000/svg" xmlns:xlink="http://www.w3.org/1999/xlink" width="16" height="16" version="1.1" viewBox="0 0 16 16"><title/><g id="Icons with numbers" fill="none" fill-rule="evenodd" stroke="none" stroke-width="1"><g id="Group" fill="#000" transform="translate(-480.000000, 0.000000)"><path id="Rectangle 142 copy" d="M495,11 L495,15 L481,15 L481,11 L480.975342,11 L484,2 L486,2 L486,3 L484.571429,3 L482,11 L494,11 L491.428571,3 L490,3 L490,2 L492,2 L495.00354,11 Z M487,1 L489,1 L489,6 L491,6 L488,10 L485,6 L487,6 Z M486,12 L486,13 L490,13 L490,12 Z M486,12"/></g></g></svg>